<svg xmlns="http://www.w3.org/2000/svg" viewBox="0 0 64 50"><path d="M39.48,19.76v-2.6H38L49.86,1.51,47.87,0l-12.6,16.6-2.38-3.34,9-11.89L39.81,0,31.35,11.12,23.45,0l-2,1.42L32.61,17.16H28.22L16,0,14,1.48,25.15,17.16H23.58v2.6H9.35V50h45.3V19.76Zm-2.5-.1v2.91H26.08V19.66ZM52.15,47.5H11.85V22.26H23.58v2.81h15.9V22.26H52.15Z" style="fill:#fff"/><path d="M24.12,27.88a5.37,5.37,0,1,0,5.37,5.37h0a5.36,5.36,0,0,0-5.36-5.36Zm0,8.23A2.87,2.87,0,1,1,27,33.24h0A2.86,2.86,0,0,1,24.12,36.11Z" style="fill:#fff"/><rect x="21.27" y="40.5" width="5.7" height="2.5" style="fill:#fff"/><rect x="34.18" y="29.39" width="10.84" height="2.5" style="fill:#fff"/><rect x="34.18" y="34.93" width="10.84" height="2.5" style="fill:#fff"/><rect x="34.18" y="40.46" width="8.52" height="2.5" style="fill:#fff"/></svg>