<svg xmlns="http://www.w3.org/2000/svg" viewBox="0 0 58 58"><path d="M57.4,35.59,46.67,34l-4.8-9.72L37.08,34,26.35,35.58l7.76,7.59L32.28,53.84l9.59-5,9.6,5L49.63,43.17ZM41.87,46l-6.27,3.3,1.2-7-5.08-5,7-1,3.13-6.36L45,36.27l7,1-5.07,4.94,1.2,7Z" style="fill:#fff"/><path d="M3.38,47.43a.94.94,0,0,1-.28-.64V37.47a.91.91,0,0,1,.24-.62,23.83,23.83,0,0,1,25.71-6.2l1.74-.11L31.65,29c-.09,0-.17-.09-.26-.12a26.1,26.1,0,0,0-8-2.08,11.49,11.49,0,1,0-5.16,0A26.31,26.31,0,0,0,1.49,35.17,3.5,3.5,0,0,0,.6,37.46v9.35A3.44,3.44,0,0,0,4,50.17H28.66l.48-2.5H4A.89.89,0,0,1,3.38,47.43Zm8.48-31.79a9,9,0,1,1,9,9h0A9,9,0,0,1,11.86,15.64Z" style="fill:#fff"/></svg>