<svg xmlns="http://www.w3.org/2000/svg" width="44.461" height="51.577" viewBox="0 0 44.461 51.577"><path d="M459.953,1075.356h-34.8a4.843,4.843,0,0,0-4.832,4.833v27.841a11.183,11.183,0,0,0,2.406,6.424,6.265,6.265,0,0,0,.5.576l9,9a5.992,5.992,0,0,0,.583.5,11.205,11.205,0,0,0,6.418,2.4h20.724a4.841,4.841,0,0,0,4.832-4.833l0-41.911A4.844,4.844,0,0,0,459.953,1075.356ZM434.394,1122.1a2.2,2.2,0,0,1-.037.475,2.566,2.566,0,0,1-.359-.307l-9-9a2.736,2.736,0,0,1-.312-.364,2.918,2.918,0,0,1,.477-.037h6.9a2.356,2.356,0,0,1,2.334,2.333Zm27.892,0a2.355,2.355,0,0,1-2.333,2.334l-20.724,0v0a7.344,7.344,0,0,1-2.665-.607,4.14,4.14,0,0,0,.331-1.728v-6.9a4.841,4.841,0,0,0-4.833-4.832h-6.9a4.193,4.193,0,0,0-1.728.332,7.356,7.356,0,0,1-.607-2.665v-27.841a2.354,2.354,0,0,1,2.332-2.333h34.8a2.354,2.354,0,0,1,2.333,2.333ZM446.7,1089.993h6.492v-2.5H446.7Zm0,8.789h6.492v-2.5H446.7Z" transform="translate(-420.326 -1075.356)"/></svg>