<svg xmlns="http://www.w3.org/2000/svg" width="15.012" height="12.182" viewBox="0 0 15.012 12.182"><defs><style>.a{fill:#fff;}</style></defs><path class="a" d="M501.539,567.06a7.123,7.123,0,0,1-.7.861,5.519,5.519,0,0,1-.844.721,1.193,1.193,0,0,1,.018.2v.2a8.9,8.9,0,0,1-.572,3.085A8.7,8.7,0,0,1,495,577a8.417,8.417,0,0,1-3.744.8,8.668,8.668,0,0,1-2.505-.361,8.464,8.464,0,0,1-2.224-1.028,2.808,2.808,0,0,0,.369.044c.118.006.241.009.37.009a6.029,6.029,0,0,0,2.065-.352,6.387,6.387,0,0,0,1.767-.966,2.948,2.948,0,0,1-1.8-.624A3.114,3.114,0,0,1,488.215,573a1.606,1.606,0,0,0,.281.044c.094.006.193.009.3.009a3.125,3.125,0,0,0,.413-.027,2.846,2.846,0,0,0,.395-.079,2.989,2.989,0,0,1-1.757-1.054,2.958,2.958,0,0,1-.7-1.952v-.052a2.941,2.941,0,0,0,.65.281,2.561,2.561,0,0,0,.738.1,3.035,3.035,0,0,1-.993-1.081,2.958,2.958,0,0,1-.378-1.467,3.133,3.133,0,0,1,.106-.818,2.6,2.6,0,0,1,.316-.729,8.852,8.852,0,0,0,1.266,1.257,9.04,9.04,0,0,0,1.511.993,8.62,8.62,0,0,0,1.7.668,8.834,8.834,0,0,0,1.864.3,1.9,1.9,0,0,1-.071-.351c-.011-.117-.017-.234-.017-.352a3.076,3.076,0,0,1,3.076-3.076,3.069,3.069,0,0,1,1.248.255,2.97,2.97,0,0,1,1,.712,5.947,5.947,0,0,0,1.019-.3,6.2,6.2,0,0,0,.932-.457,3.08,3.08,0,0,1-.527.985,3.048,3.048,0,0,1-.826.72,5.721,5.721,0,0,0,.914-.176,7.479,7.479,0,0,0,.861-.3Z" transform="translate(-486.527 -565.618)"/></svg>