<svg xmlns="http://www.w3.org/2000/svg" width="15.51" height="15.494" viewBox="0 0 15.51 15.494"><defs><style>.a{fill:#fff;}</style></defs><g transform="translate(-434.245 -562.748)"><path class="a" d="M442,564.334q-1.494,0-1.969.026c-.316.018-.674.027-1.072.027a3.587,3.587,0,0,0-.861.114,3.914,3.914,0,0,0-.528.185,1.586,1.586,0,0,0-.474.193,1.952,1.952,0,0,0-.387.334c-.106.129-.205.261-.3.395a1.79,1.79,0,0,0-.228.466,2.16,2.16,0,0,0-.185.519,5.2,5.2,0,0,0-.114.87q-.018.58-.027,1.063t-.008,1.96q0,1.494.008,1.978c.006.322.015.677.027,1.063a4,4,0,0,0,.132.87q.1.326.167.519a1.924,1.924,0,0,0,.211.475,2.279,2.279,0,0,0,.316.386,2.82,2.82,0,0,0,.4.308,2.385,2.385,0,0,0,.457.22,2.156,2.156,0,0,0,.528.184,3.823,3.823,0,0,0,.861.079c.4.024.756.036,1.072.036h3.938c.316,0,.674-.012,1.072-.036a4.624,4.624,0,0,0,.861-.123q.334-.087.528-.14a2.012,2.012,0,0,0,.474-.211,2.294,2.294,0,0,0,.387-.317c.105-.129.205-.263.3-.4a2.054,2.054,0,0,0,.228-.457A2.16,2.16,0,0,0,448,574.4a3.8,3.8,0,0,0,.079-.87c.012-.386.02-.741.026-1.063s.009-.982.009-1.978,0-1.637-.009-1.96-.014-.676-.026-1.063a4.535,4.535,0,0,0-.123-.87l-.141-.519a1.973,1.973,0,0,0-.211-.474,2.286,2.286,0,0,0-.316-.387,3.419,3.419,0,0,0-.4-.316,1.6,1.6,0,0,0-.457-.211,1.749,1.749,0,0,0-.528-.2,4.5,4.5,0,0,0-.861-.1c-.4-.024-.756-.038-1.072-.044s-.973-.009-1.969-.009ZM442,563h1.995c.322,0,.683.012,1.081.035a5.324,5.324,0,0,1,1.046.123q.448.106.782.211c.246.117.484.235.712.352a2.22,2.22,0,0,1,.642.51,3.749,3.749,0,0,1,.51.659,6,6,0,0,1,.351.694,5.072,5.072,0,0,1,.229.809,7.777,7.777,0,0,1,.123,1.019q.016.6.026,1.081t.009,1.995q0,1.53-.009,2.013t-.026,1.064a7.3,7.3,0,0,1-.132,1.054,5.8,5.8,0,0,1-.22.791,3.811,3.811,0,0,1-.343.712,3.569,3.569,0,0,1-.518.642,4.348,4.348,0,0,1-.659.492q-.326.193-.7.369a4.068,4.068,0,0,1-.791.22,8.718,8.718,0,0,1-1.037.114c-.4.012-.759.021-1.081.026s-.987.009-1.995.009-1.673,0-1.995-.009-.683-.014-1.081-.026a6.811,6.811,0,0,1-1.046-.132c-.3-.064-.56-.132-.782-.2a3.4,3.4,0,0,1-.73-.351,3.854,3.854,0,0,1-.624-.51,4.647,4.647,0,0,1-.51-.668,5.309,5.309,0,0,1-.351-.686,5.058,5.058,0,0,1-.229-.808,7.847,7.847,0,0,1-.123-1.037q-.016-.58-.026-1.064t-.009-2.013q0-1.511.009-1.995t.026-1.081a7.267,7.267,0,0,1,.132-1.037,5.841,5.841,0,0,1,.22-.791,6.483,6.483,0,0,1,.351-.7,3.146,3.146,0,0,1,.51-.65,2.531,2.531,0,0,1,.642-.5c.228-.123.466-.244.712-.361a4.44,4.44,0,0,1,.791-.228,6.274,6.274,0,0,1,1.037-.106c.4-.023.759-.035,1.081-.035Zm1.5,3.973a3.92,3.92,0,0,1,1.213.808,3.727,3.727,0,0,1,.817,1.213,3.9,3.9,0,0,1,0,3,3.825,3.825,0,0,1-2.03,2.031,3.816,3.816,0,0,1-4.219-.827,3.934,3.934,0,0,1-.817-1.221,3.817,3.817,0,0,1,0-2.962,3.8,3.8,0,0,1,2.03-2.039,3.927,3.927,0,0,1,3.006,0Zm.272,5.3A2.525,2.525,0,1,0,442,573,2.413,2.413,0,0,0,443.775,572.271Zm2.866-6.425a.892.892,0,1,0,.263.633A.863.863,0,0,0,446.641,565.846Z"/><path class="a" d="M440,578.232c-.323-.006-.683-.014-1.091-.025h0a7.292,7.292,0,0,1-1.083-.137h0c-.305-.068-.573-.135-.812-.212h0a3.513,3.513,0,0,1-.784-.378h0a4.1,4.1,0,0,1-.673-.551h0a4.93,4.93,0,0,1-.537-.706h0a5.343,5.343,0,0,1-.372-.725h0a5.288,5.288,0,0,1-.24-.85h0a8.3,8.3,0,0,1-.129-1.079h0c-.011-.388-.019-.742-.025-1.065h0c-.006-.327-.008-1-.008-2.018h0c0-1.009,0-1.673.008-2h0q.009-.483.025-1.09h0a7.441,7.441,0,0,1,.139-1.076h0a5.745,5.745,0,0,1,.234-.838h0a7.052,7.052,0,0,1,.364-.728h0a3.431,3.431,0,0,1,.545-.7h0a2.8,2.8,0,0,1,.705-.551h0c.233-.124.473-.245.738-.372h0a4.723,4.723,0,0,1,.833-.241h0a6.465,6.465,0,0,1,1.072-.109h0c.4-.024.768-.036,1.1-.036h2v.5h-2c-.317,0-.674.012-1.073.036h0a5.935,5.935,0,0,0-1,.1h0a4.227,4.227,0,0,0-.732.208h0c-.244.117-.477.235-.7.356h0a2.28,2.28,0,0,0-.584.457h0a2.959,2.959,0,0,0-.469.6h0a6.169,6.169,0,0,0-.335.665h0a5.945,5.945,0,0,0-.21.757h0a7.142,7.142,0,0,0-.125.992h0c-.011.4-.021.756-.028,1.079h0c0,.317-.007.983-.007,1.99h0c0,1.018,0,1.689.007,2.008h0c.007.321.017.675.028,1.053h0a7.337,7.337,0,0,0,.117,1h0a4.931,4.931,0,0,0,.214.761h0a5.324,5.324,0,0,0,.335.653h0a4.307,4.307,0,0,0,.473.622h0a3.582,3.582,0,0,0,.584.477h0a3.171,3.171,0,0,0,.669.323h0c.212.067.466.133.759.2h0a6.869,6.869,0,0,0,1,.127h0c.4.011.756.019,1.077.025h0q.479.009,1.992.008h0c1.006,0,1.671,0,1.99-.008h0c.32-.006.679-.014,1.069-.025h0a9.15,9.15,0,0,0,1.008-.111h0a3.746,3.746,0,0,0,.728-.2h0c.24-.115.464-.234.674-.359h0a4.133,4.133,0,0,0,.61-.453h0a3.388,3.388,0,0,0,.484-.6h0a3.538,3.538,0,0,0,.319-.666h0a5.239,5.239,0,0,0,.21-.756h0a6.732,6.732,0,0,0,.127-1.01h0c.012-.386.022-.74.028-1.061h0c0-.319.008-.99.008-2.008h0c0-1.007,0-1.673-.008-1.99h0c-.006-.323-.016-.681-.028-1.071h0a6.883,6.883,0,0,0-.119-.986h0a4.684,4.684,0,0,0-.212-.758h0a5.6,5.6,0,0,0-.336-.666h0a3.562,3.562,0,0,0-.481-.619h0a1.962,1.962,0,0,0-.571-.456h0c-.225-.115-.461-.231-.673-.334h0q-.321-.1-.764-.207h0a5.054,5.054,0,0,0-1-.116h0q-.591-.036-1.065-.036H442v-.5h1.994c.328,0,.692.012,1.088.036h0a5.383,5.383,0,0,1,1.1.129h0c.3.071.57.142.833.227h0q.372.178.717.357h0a2.39,2.39,0,0,1,.709.56h0a3.99,3.99,0,0,1,.544.7h0a5.814,5.814,0,0,1,.37.732h0a5.289,5.289,0,0,1,.24.85h0a7.713,7.713,0,0,1,.127,1.059h0c.012.4.022.763.028,1.085h0c.006.327.008.991.008,2h0c0,1.02,0,1.691-.008,2.018h0c-.006.323-.016.677-.028,1.073h0a7.349,7.349,0,0,1-.137,1.091h0a6,6,0,0,1-.228.826h0a4.152,4.152,0,0,1-.366.758h0a3.861,3.861,0,0,1-.564.7h0a4.586,4.586,0,0,1-.7.521h0a8.061,8.061,0,0,1-.728.386h0a4.336,4.336,0,0,1-.84.233h0a8.89,8.89,0,0,1-1.074.12h0c-.4.011-.76.019-1.085.025h0q-.486.009-2,.01h0c-1.01,0-1.675,0-2-.01Zm2-1.38h-1.97c-.323,0-.685-.012-1.072-.034h0a4.013,4.013,0,0,1-.919-.087h0a2.158,2.158,0,0,1-.554-.192h0a2.544,2.544,0,0,1-.507-.243h0a3.1,3.1,0,0,1-.447-.343h0a2.452,2.452,0,0,1-.351-.43h0a2.226,2.226,0,0,1-.235-.522h0c-.05-.137-.105-.313-.171-.533h0a4.259,4.259,0,0,1-.142-.934h0c-.012-.387-.02-.743-.026-1.066h0c-.008-.326-.01-.986-.01-1.982h0c0-.986,0-1.639.01-1.964h0c.006-.325.014-.679.026-1.075h0a5.6,5.6,0,0,1,.12-.913h0a2.137,2.137,0,0,1,.191-.538h0a2.037,2.037,0,0,1,.261-.531h0c.1-.141.2-.277.319-.422h0a2.272,2.272,0,0,1,.437-.376h0a1.7,1.7,0,0,1,.505-.21h0a4.272,4.272,0,0,1,.561-.2h0a3.836,3.836,0,0,1,.932-.125h0c.394,0,.747-.008,1.058-.026h0c.328-.018.984-.025,1.984-.025h0v.5c-1,0-1.652.009-1.957.025h0c-.322.018-.683.026-1.077.026h0a3.473,3.473,0,0,0-.8.1h0a4.845,4.845,0,0,0-.536.188h0a1.393,1.393,0,0,0-.4.16h0a1.817,1.817,0,0,0-.327.284h0c-.1.123-.2.249-.287.378h0a1.8,1.8,0,0,0-.214.443h0a1.966,1.966,0,0,0-.162.458h0a4.919,4.919,0,0,0-.107.82h0c-.012.385-.02.738-.026,1.059h0q-.009.478-.01,1.956h0q0,1.494.01,1.973h0c.006.32.014.674.026,1.053h0a3.8,3.8,0,0,0,.122.814h0c.064.214.118.384.165.514h0a1.827,1.827,0,0,0,.184.416h0a2.184,2.184,0,0,0,.273.337h0a2.63,2.63,0,0,0,.369.279h0a2.2,2.2,0,0,0,.445.212h0a1.891,1.891,0,0,0,.465.162h0a3.707,3.707,0,0,0,.818.071h0q.591.036,1.058.036h3.938c.309,0,.661-.012,1.055-.034h0a4.483,4.483,0,0,0,.814-.116h0l.517-.137h0a1.768,1.768,0,0,0,.415-.184h0a2.059,2.059,0,0,0,.328-.263h0c.1-.123.193-.252.282-.385h0a2,2,0,0,0,.219-.439h0a1.939,1.939,0,0,0,.16-.458h0a3.655,3.655,0,0,0,.073-.817h0c.012-.387.02-.741.026-1.061h0q.009-.478.01-1.973h0q0-1.476-.01-1.956h0c-.006-.321-.014-.674-.026-1.051h0a4.338,4.338,0,0,0-.115-.822h0c-.059-.216-.105-.388-.138-.509h0a1.742,1.742,0,0,0-.183-.414h0a2.124,2.124,0,0,0-.273-.337h0a3.3,3.3,0,0,0-.376-.292h0a1.372,1.372,0,0,0-.386-.179h0l-.036-.012-.03-.017a1.421,1.421,0,0,0-.451-.171h0a4.336,4.336,0,0,0-.818-.091h0q-.594-.033-1.063-.044h0q-.47-.006-1.962-.007h0v-.5c1,0,1.651,0,1.972.007h0c.32.007.681.02,1.077.044h0a4.832,4.832,0,0,1,.909.1h0a1.991,1.991,0,0,1,.572.216h0a1.785,1.785,0,0,1,.493.234h0a3.647,3.647,0,0,1,.444.346h0a2.654,2.654,0,0,1,.35.43h0a2.306,2.306,0,0,1,.242.542h0c.035.131.081.3.14.521h0a4.734,4.734,0,0,1,.131.927h0c.012.388.02.742.026,1.067h0c.008.325.01.978.01,1.964h0c0,1,0,1.656-.01,1.982h0c-.006.323-.014.679-.026,1.059h0a4.094,4.094,0,0,1-.085.929h0a2.394,2.394,0,0,1-.192.545h0a2.417,2.417,0,0,1-.256.511h0c-.1.146-.2.289-.33.441h0a2.559,2.559,0,0,1-.43.351h0a2.246,2.246,0,0,1-.542.241h0l-.531.143h0a5.167,5.167,0,0,1-.909.13h0c-.4.022-.765.034-1.087.034H442Zm0-2.285a4,4,0,0,1-1.6-.318h0a4.018,4.018,0,0,1-1.291-.882h0a4.186,4.186,0,0,1-.869-1.3h0a3.958,3.958,0,0,1-.319-1.584h0a3.993,3.993,0,0,1,.319-1.574h0a4.051,4.051,0,0,1,.869-1.3h0a4.141,4.141,0,0,1,1.291-.871h0a4.054,4.054,0,0,1,1.6-.319h0a4.038,4.038,0,0,1,1.6.319h0l-.1.23-.1.229a3.519,3.519,0,0,0-1.4-.277h0a3.535,3.535,0,0,0-1.406.277h0a3.585,3.585,0,0,0-1.135.766h0a3.592,3.592,0,0,0-.764,1.143h0a3.478,3.478,0,0,0-.279,1.378h0a3.457,3.457,0,0,0,.279,1.386h0a3.731,3.731,0,0,0,.766,1.147h0a3.544,3.544,0,0,0,1.133.77h0a3.5,3.5,0,0,0,1.406.279h0a3.486,3.486,0,0,0,1.4-.279h0a3.6,3.6,0,0,0,1.136-.765h0a3.6,3.6,0,0,0,.765-1.134h0a3.539,3.539,0,0,0,.278-1.4h0a3.52,3.52,0,0,0-.281-1.4h0a3.432,3.432,0,0,0-.76-1.132h0a3.677,3.677,0,0,0-1.138-.759h0l.1-.229.1-.23a4.174,4.174,0,0,1,1.289.861h0a3.936,3.936,0,0,1,.873,1.293h0a4.044,4.044,0,0,1,.318,1.592h0a4.009,4.009,0,0,1-.318,1.6h0a4.141,4.141,0,0,1-.871,1.291h0a4.077,4.077,0,0,1-1.291.87h0a3.982,3.982,0,0,1-1.585.318H442Zm0-1.318a2.688,2.688,0,0,1-1.953-.8h0a2.666,2.666,0,0,1-.812-1.962h0a2.67,2.67,0,0,1,.81-1.952h0a2.683,2.683,0,0,1,1.955-.812h0a2.673,2.673,0,0,1,1.95.812h0a2.668,2.668,0,0,1,.812,1.952h0a2.67,2.67,0,0,1-.812,1.962h0a2.684,2.684,0,0,1-1.934.8H442Zm-1.6-4.361a2.169,2.169,0,0,0-.666,1.6h0a2.169,2.169,0,0,0,.664,1.606h0a2.183,2.183,0,0,0,1.6.658h0a2.177,2.177,0,0,0,1.6-.658h0a2.166,2.166,0,0,0,.665-1.606h0a2.18,2.18,0,0,0-.665-1.6h0a2.18,2.18,0,0,0-1.6-.667h0a2.172,2.172,0,0,0-1.6.667Zm5.607-1.263a1.129,1.129,0,0,1-.811-.336h0a1.117,1.117,0,0,1-.335-.81h0a1.113,1.113,0,0,1,.335-.811h0a1.113,1.113,0,0,1,.811-.336h0a1.105,1.105,0,0,1,.808.336h0l-.176.177-.176.178a.614.614,0,0,0-.456-.192h0a.611.611,0,0,0-.457.192h0a.605.605,0,0,0-.19.456h0a.606.606,0,0,0,.19.455h0a.61.61,0,0,0,.457.19h0a.612.612,0,0,0,.456-.19h0a.606.606,0,0,0,.19-.455h0a.605.605,0,0,0-.19-.456h0l.176-.178.176-.177a1.107,1.107,0,0,1,.337.811h0a1.111,1.111,0,0,1-.337.81h0a1.12,1.12,0,0,1-.8.336h-.008Z"/></g></svg>