<svg xmlns="http://www.w3.org/2000/svg" width="15.012" height="10.705" viewBox="0 0 15.012 10.705"><defs><style>.a{fill:#fff;}</style></defs><path class="a" d="M392.535,570.871a.57.57,0,0,1-.061.273.468.468,0,0,1-.185.184L388,574a.388.388,0,0,1-.141.07.562.562,0,0,1-.14.018.469.469,0,0,1-.132-.018.747.747,0,0,1-.132-.052.476.476,0,0,1-.281-.457V568.2a.507.507,0,0,1,.07-.272.632.632,0,0,1,.211-.2.61.61,0,0,1,.272-.071.522.522,0,0,1,.273.088l4.289,2.69a.467.467,0,0,1,.185.184.528.528,0,0,1,.061.255Zm4.289,0c0-.269,0-.507-.009-.712s-.008-.384-.008-.536-.006-.322-.018-.51-.029-.4-.053-.632-.05-.455-.079-.66-.061-.395-.1-.571a2.127,2.127,0,0,0-.21-.571,1.848,1.848,0,0,0-.37-.466,1.9,1.9,0,0,0-.492-.334,1.8,1.8,0,0,0-.545-.158q-.932-.089-2.338-.141t-3.287-.053q-1.881,0-3.287.053t-2.338.141a1.807,1.807,0,0,0-.545.158,1.937,1.937,0,0,0-.492.334,2.311,2.311,0,0,0-.36.466,1.645,1.645,0,0,0-.2.571,5.053,5.053,0,0,0-.115.571q-.043.308-.079.66c-.023.234-.041.445-.052.632s-.018.358-.018.51,0,.331-.009.536-.009.443-.009.712,0,.51.009.721.009.392.009.545.006.322.018.51.029.4.052.632.05.44.079.651.062.4.1.58a2.3,2.3,0,0,0,.211.562,1.806,1.806,0,0,0,.369.475,2.222,2.222,0,0,0,.492.316,1.838,1.838,0,0,0,.545.159q.932.105,2.338.158t3.287.052q1.881,0,3.287-.052t2.338-.158a1.829,1.829,0,0,0,.545-.159,2.178,2.178,0,0,0,.492-.316,2.216,2.216,0,0,0,.361-.475,1.753,1.753,0,0,0,.2-.562,4.774,4.774,0,0,0,.114-.58c.029-.211.056-.428.079-.651s.041-.445.053-.632.018-.358.018-.51,0-.334.008-.545.009-.451.009-.721Z" transform="translate(-381.812 -565.527)"/></svg>