<svg xmlns="http://www.w3.org/2000/svg" width="68.458" height="59.986" viewBox="0 0 68.458 59.986"><g transform="translate(-1082.398 -1878.049)"><path d="M1139.827,1904.7l-34.082-16.031-7.079,15.054,18.916,8.9c-.017.039-.041.074-.06.114a16.763,16.763,0,1,0,22.305-8.032" fill="#fff"/><path d="M1132.675,1938.035a18.093,18.093,0,0,1-7.714-1.729h0a18.175,18.175,0,0,1-10.437-16.451h0a18.036,18.036,0,0,1,1.229-6.547h0l-17.685-8.316a1.4,1.4,0,0,1-.671-1.864h0l7.081-15.052a1.4,1.4,0,0,1,1.862-.672h0l34.081,16.032-.6,1.266-.6,1.267-32.814-15.435-5.889,12.518,17.652,8.3a1.4,1.4,0,0,1,.691,1.814h0a1.362,1.362,0,0,1-.085.174h0a15.272,15.272,0,0,0-1.462,6.514h0a15.372,15.372,0,0,0,8.83,13.917h0a15.262,15.262,0,0,0,6.523,1.463h0a15.381,15.381,0,0,0,13.918-8.828h0a15.29,15.29,0,0,0,1.463-6.527h0a15.365,15.365,0,0,0-8.827-13.911h0l.6-1.267.6-1.266a18.165,18.165,0,0,1,10.435,16.444h0a18.113,18.113,0,0,1-1.73,7.719h0a18.176,18.176,0,0,1-16.444,10.436h-.007Z" fill="#231f20"/><path d="M1106.379,1902.524a1.4,1.4,0,0,1-.671-1.864h0l4.624-9.831a1.4,1.4,0,0,1,1.862-.67h0a1.4,1.4,0,0,1,.671,1.864h0l-4.624,9.831a1.4,1.4,0,0,1-1.267.8h0a1.386,1.386,0,0,1-.595-.133Z" fill="#231f20"/><path d="M1138.775,1922.732a6.654,6.654,0,1,1-3.19-8.853A6.654,6.654,0,0,1,1138.775,1922.732Z" fill="#0054a6"/><path d="M1132.749,1927.952a8.07,8.07,0,0,1-3.424-.766h0a8.054,8.054,0,0,1-4.628-7.293h0a7.919,7.919,0,0,1,.769-3.419h0a8.049,8.049,0,0,1,7.29-4.631h0a7.988,7.988,0,0,1,3.423.768h0a8.056,8.056,0,0,1,4.628,7.291h0a8.043,8.043,0,0,1-.765,3.422h0l-1.267-.593,1.267.6a8.057,8.057,0,0,1-7.286,4.623h-.007ZM1128,1917.67a5.164,5.164,0,0,0-.5,2.223h0a5.252,5.252,0,0,0,3.019,4.758h0a5.257,5.257,0,0,0,2.233.5h0a5.257,5.257,0,0,0,4.759-3.015h0a5.277,5.277,0,0,0,.5-2.235h0a5.246,5.246,0,0,0-3.021-4.757h0a5.158,5.158,0,0,0-2.23-.5h0a5.253,5.253,0,0,0-4.76,3.027Z"/><rect width="9.04" height="7.987" transform="translate(1113.328 1902.228) rotate(-64.814)" fill="#fff"/><path d="M1119.958,1906.894l-7.227-3.4a1.4,1.4,0,0,1-.671-1.863h0l3.844-8.181a1.4,1.4,0,0,1,1.864-.672h0l7.228,3.4a1.4,1.4,0,0,1,.724.792h0a1.41,1.41,0,0,1-.051,1.071h0l-3.849,8.182a1.388,1.388,0,0,1-.793.72h0a1.39,1.39,0,0,1-.475.084h0a1.4,1.4,0,0,1-.594-.133Zm.6-1.268.6-1.267-.6,1.267Zm-5.365-4.071,4.694,2.209,2.654-5.648-4.694-2.207-2.654,5.646Z" fill="#231f20"/><path d="M1094.767,1895.046l-7.847-3.69a1.4,1.4,0,0,1-.672-1.865h0a1.4,1.4,0,0,1,1.865-.67h0l7.846,3.69a1.4,1.4,0,0,1,.67,1.865h0a1.4,1.4,0,0,1-1.269.8h0a1.381,1.381,0,0,1-.593-.133Z" fill="#231f20"/><path d="M1097.656,1886.217l-4.258-5.955a1.4,1.4,0,0,1,.326-1.952h0a1.4,1.4,0,0,1,1.954.325h0l4.257,5.955a1.4,1.4,0,0,1-.325,1.954h0a1.392,1.392,0,0,1-.81.259h0a1.4,1.4,0,0,1-1.144-.586Z" fill="#231f20"/><path d="M1082.4,1902.379a1.4,1.4,0,0,1,1.3-1.5h0l7.3-.516a1.4,1.4,0,0,1,1.5,1.3h0a1.4,1.4,0,0,1-1.3,1.5h0l-7.306.517c-.033,0-.067,0-.1,0h0a1.4,1.4,0,0,1-1.4-1.3Z" fill="#231f20"/></g></svg>