<svg width="57" height="54" fill="none" xmlns="http://www.w3.org/2000/svg"><g clip-path="url(#n2_v2__a)"><path d="m13.6 23.2 2.2 6.6-2.2 11.9 4.5 4.2 4.6-4.2L21 29.8l1.7-6.6h-9.1Zm33.9 1.5h-2.3c-1 0-1.8.8-1.8 1.8v2.3c0 1 .8 1.8 1.8 1.8h2.3c1 0 1.8-.8 1.8-1.8v-2.3c0-1-.8-1.8-1.8-1.8Z" fill="#0054A6"/><path d="M17.9 19.3c4.7 0 8.6-3.9 8.6-8.6 0-4.7-3.9-8.6-8.6-8.6-4.7 0-8.6 3.9-8.6 8.6 0 4.7 3.9 8.6 8.6 8.6Zm0-14.1c3.1 0 5.6 2.5 5.6 5.6 0 3.1-2.5 5.6-5.6 5.6-3.1 0-5.6-2.5-5.6-5.6 0-3.1 2.6-5.6 5.6-5.6Zm10.5 16.5h-21c-3.9 0-7.1 3.2-7.1 7.1v22.9c0 .8.7 1.5 1.5 1.5s1.5-.7 1.5-1.5V28.8c0-2.3 1.9-4.1 4.1-4.1h5.1l1.8 5.2L12 42.2l6.2 5.8 6.1-5.7-1.7-12.4 1.3-5.2h4.6c2.3 0 4.1 1.9 4.1 4.1v17.1c0 .8.7 1.5 1.5 1.5s1.5-.7 1.5-1.5V28.8c0-3.9-3.2-7.1-7.2-7.1Zm-7.7 3-.9 3.4h-3.1l-1.2-3.4h5.2Zm-2.6 19.2-2.9-2.7 1.8-9.8h2.7l1.4 9.7-3 2.8Zm23.1-29.8c3.8 0 6.9-3.1 6.9-6.9 0-3.8-3.1-6.9-6.9-6.9-3.8 0-6.9 3.1-6.9 6.9 0 3.8 3.1 6.9 6.9 6.9Zm0-10.8c2.2 0 3.9 1.8 3.9 3.9 0 2.1-1.8 3.9-3.9 3.9-2.1 0-3.9-1.8-3.9-3.9 0-2.1 1.8-3.9 3.9-3.9ZM49 17H35.8c-.8 0-1.5.7-1.5 1.5S35 20 35.8 20H49c2.6 0 4.7 2.1 4.7 4.7v17.6c0 .8.7 1.5 1.5 1.5s1.5-.7 1.5-1.5V24.7c0-4.3-3.4-7.7-7.7-7.7Z" fill="#000"/></g><defs><clipPath id="n2_v2__a"><path fill="#fff" d="M0 0h57v53.5H0z"/></clipPath></defs></svg>