<svg xmlns="http://www.w3.org/2000/svg" width="63" height="56" viewBox="0 0 63 56"><g transform="translate(-897.586 -1624.195)"><path d="M959.347,1641.066,945.48,1627.2a4.245,4.245,0,0,0-6,0l-9.512,9.515-9.616-9.616a4.238,4.238,0,0,0-6,0l-13.864,13.865a4.241,4.241,0,0,0,0,6l9.713,9.715-2.83,2.829a3.073,3.073,0,0,0,2.137,5.246c.03,0,.059,0,.087,0l1.756-.024-.024,1.755c0,.031,0,.061,0,.091a3.074,3.074,0,0,0,3.036,3.034l.089,0,1.756-.024-.024,1.756,0,.09a3.076,3.076,0,0,0,3.036,3.034l.087,0,1.756-.023-.024,1.756c0,.03,0,.06,0,.09a3.073,3.073,0,0,0,5.246,2.134l2.831-2.826,2.826,2.824a4.248,4.248,0,0,0,6,0l11.747-11.747.153-.251.193-.094,1.772-1.772a4.248,4.248,0,0,0,0-6l-1.967-1.968,9.515-9.517A4.247,4.247,0,0,0,959.347,1641.066Z" transform="translate(0 0.008)" fill="#fff"/><line x1="4.022" y2="4.04" transform="translate(928.014 1631.849)"/><path d="M929.313,1637.2a1.32,1.32,0,0,1-.941-.392,1.342,1.342,0,0,1,0-1.892l4.022-4.041a1.328,1.328,0,0,1,1.883,0,1.343,1.343,0,0,1,0,1.893l-4.021,4.04A1.321,1.321,0,0,1,929.313,1637.2Z" transform="translate(-1.301 0.029)"/><line y1="4.176" x2="4.153" transform="translate(946.893 1651.765)"/><path d="M949,1657.156a1.327,1.327,0,0,1-.942-.392,1.343,1.343,0,0,1,0-1.892l4.155-4.176a1.33,1.33,0,0,1,1.884,0,1.345,1.345,0,0,1,0,1.893l-4.154,4.174A1.322,1.322,0,0,1,949,1657.156Z" transform="translate(-2.519 0.122)"/><path d="M928.342,1674.935l2.521,2.533a4.452,4.452,0,0,0,6.315,0l13.508-13.573a4.5,4.5,0,0,0,0-6.342L934.107,1640.9" transform="translate(-1.85 0.078)" fill="#fff"/><path d="M934.021,1680.123a5.766,5.766,0,0,1-4.1-1.7l-2.523-2.531a1.345,1.345,0,0,1,0-1.893,1.327,1.327,0,0,1,1.884,0l2.522,2.533a3.127,3.127,0,0,0,4.431,0l13.51-13.572a3.164,3.164,0,0,0,0-4.452l-16.58-16.657a1.335,1.335,0,0,1,1.884-1.893l16.58,16.658a5.852,5.852,0,0,1,0,8.235l-13.511,13.572A5.762,5.762,0,0,1,934.021,1680.123Z" transform="translate(-2.519 0.072)"/><line x2="4.45" y2="4.47" transform="translate(905.009 1651.569)"/><path d="M909.459,1657.257a1.321,1.321,0,0,1-.941-.392l-4.452-4.47a1.345,1.345,0,0,1,0-1.893,1.328,1.328,0,0,1,1.884,0l4.451,4.469a1.344,1.344,0,0,1,0,1.894A1.323,1.323,0,0,1,909.459,1657.257Z" transform="translate(0 0.121)"/><line x1="4.352" y1="4.371" transform="translate(923.708 1631.652)"/><path d="M929.182,1637.333a1.325,1.325,0,0,1-.942-.392l-4.351-4.371a1.34,1.34,0,0,1,0-1.892,1.325,1.325,0,0,1,1.883,0l4.351,4.37a1.343,1.343,0,0,1,0,1.893A1.324,1.324,0,0,1,929.182,1637.333Z" transform="translate(-1.116 0.028)"/><path d="M929.341,1635.861l-9.008,9.05a3.491,3.491,0,0,0,0,4.922h0a3.455,3.455,0,0,0,4.9,0l8.872-8.915" transform="translate(-1.079 0.054)" fill="#fff"/><path d="M922.784,1652.2h0a4.823,4.823,0,0,1-3.392-8.226l9.007-9.05a1.335,1.335,0,0,1,1.884,1.893l-9.008,9.05a2.143,2.143,0,0,0,1.509,3.658h0a2.111,2.111,0,0,0,1.508-.628l8.873-8.915a1.329,1.329,0,0,1,1.883,0,1.343,1.343,0,0,1,0,1.893l-8.872,8.914A4.757,4.757,0,0,1,922.784,1652.2Z" transform="translate(-1.069 0.048)"/><path d="M914.067,1655.986a3.32,3.32,0,0,0-4.707,0l-2.428,2.438a3.355,3.355,0,0,0,0,4.728,3.319,3.319,0,0,0,4.706,0l2.429-2.439A3.354,3.354,0,0,0,914.067,1655.986Z" transform="translate(0 0.144)" fill="#fff"/><path d="M909.286,1665.475h0a4.685,4.685,0,0,1-3.295-7.991l2.428-2.438a4.671,4.671,0,0,1,6.591,6.621l-2.431,2.439A4.614,4.614,0,0,1,909.286,1665.475Zm2.427-9.123a1.977,1.977,0,0,0-1.41.587l-2.429,2.439a2,2,0,0,0,1.412,3.422h0a1.977,1.977,0,0,0,1.409-.587l2.431-2.44a2,2,0,0,0-1.413-3.421Z" transform="translate(0 0.137)"/><path d="M918.8,1660.714a3.317,3.317,0,0,0-4.706,0l-2.428,2.437a3.353,3.353,0,0,0,0,4.729,3.314,3.314,0,0,0,4.7,0l2.43-2.438A3.353,3.353,0,0,0,918.8,1660.714Z" transform="translate(-0.585 0.166)" fill="#fff"/><path d="M914.015,1670.2a4.673,4.673,0,0,1-4.66-4.681,4.665,4.665,0,0,1,1.366-3.312l2.427-2.436a4.67,4.67,0,0,1,6.59,6.62l-2.43,2.439A4.613,4.613,0,0,1,914.015,1670.2Zm2.427-9.124a1.976,1.976,0,0,0-1.411.587L912.6,1664.1a2.012,2.012,0,0,0,0,2.835,1.988,1.988,0,0,0,2.822,0l2.43-2.439a2.006,2.006,0,0,0-1.413-3.423Z" transform="translate(-0.551 0.159)"/><path d="M923.525,1665.444a3.318,3.318,0,0,0-4.707,0l-2.427,2.437a3.35,3.35,0,0,0,0,4.727,3.314,3.314,0,0,0,4.705,0l2.429-2.438A3.354,3.354,0,0,0,923.525,1665.444Z" transform="translate(-0.796 0.188)" fill="#fff"/><path d="M918.743,1674.933h0a4.685,4.685,0,0,1-3.294-7.992l2.427-2.438a4.671,4.671,0,0,1,6.59,6.621l-2.429,2.439A4.613,4.613,0,0,1,918.743,1674.933Zm2.428-9.124a1.981,1.981,0,0,0-1.411.587l-2.428,2.438a2.006,2.006,0,0,0,1.411,3.424h0a1.978,1.978,0,0,0,1.411-.588l2.429-2.44a2,2,0,0,0-1.412-3.421Z" transform="translate(-0.773 0.182)"/><path d="M928.254,1670.173a3.317,3.317,0,0,0-4.705,0l-2.431,2.438a3.353,3.353,0,0,0,0,4.726,3.315,3.315,0,0,0,4.706,0l2.43-2.438A3.352,3.352,0,0,0,928.254,1670.173Z" transform="translate(-1.007 0.21)" fill="#fff"/><path d="M923.473,1679.661h0a4.684,4.684,0,0,1-3.3-7.99l2.428-2.438a4.67,4.67,0,0,1,6.589,6.619l-2.429,2.439A4.62,4.62,0,0,1,923.473,1679.661Zm2.426-9.123a1.971,1.971,0,0,0-1.409.587l-2.43,2.439a2,2,0,0,0,1.413,3.421h0a1.976,1.976,0,0,0,1.409-.588l2.431-2.438a2,2,0,0,0-1.414-3.421Z" transform="translate(-0.994 0.204)"/><line x2="8.202" y2="8.243" transform="translate(938.673 1657.662)"/><path d="M948.764,1667.094a1.326,1.326,0,0,1-.942-.392l-8.2-8.242a1.344,1.344,0,0,1,0-1.893,1.328,1.328,0,0,1,1.884,0l8.2,8.244a1.342,1.342,0,0,1,0,1.891A1.328,1.328,0,0,1,948.764,1667.094Z" transform="translate(-1.919 0.149)"/><line x2="8.204" y2="8.243" transform="translate(934.053 1662.517)"/><path d="M943.934,1671.927a1.322,1.322,0,0,1-.943-.393l-8.2-8.242a1.343,1.343,0,0,1,0-1.893,1.328,1.328,0,0,1,1.884,0l8.2,8.243a1.344,1.344,0,0,1,0,1.892A1.323,1.323,0,0,1,943.934,1671.927Z" transform="translate(-1.697 0.172)"/><line x2="8.202" y2="8.24" transform="translate(929.434 1667.372)"/><path d="M939.1,1676.757a1.325,1.325,0,0,1-.942-.392l-8.2-8.241a1.341,1.341,0,0,1,0-1.891,1.326,1.326,0,0,1,1.884,0l8.2,8.241a1.344,1.344,0,0,1,0,1.892A1.328,1.328,0,0,1,939.1,1676.757Z" transform="translate(-1.474 0.194)"/><path d="M958.04,1640.508l-13.51-13.57a4.451,4.451,0,0,0-6.314,0l-4.88,4.9,19.821,19.915,4.883-4.9A4.506,4.506,0,0,0,958.04,1640.508Z" transform="translate(-2.519 0.007)" fill="#0054a6" stroke="#000" stroke-miterlimit="10" stroke-width="1"/><path d="M953.157,1653.1h0a1.33,1.33,0,0,1-.941-.393l-19.822-19.915a1.342,1.342,0,0,1,0-1.893l4.88-4.9a5.781,5.781,0,0,1,8.2,0l13.508,13.572a5.849,5.849,0,0,1,0,8.236l-4.881,4.9A1.331,1.331,0,0,1,953.157,1653.1Zm-17.938-21.254,17.938,18.023,3.941-3.958a3.162,3.162,0,0,0,0-4.451l-13.509-13.573a3.128,3.128,0,0,0-4.432,0Z" transform="translate(-2.519 0)"/><line x2="19.821" y2="19.916" transform="translate(931.365 1631.849)"/><path d="M953.157,1653.074a1.325,1.325,0,0,1-.941-.393l-19.822-19.915a1.342,1.342,0,0,1,0-1.893,1.328,1.328,0,0,1,1.883,0l19.823,19.915a1.345,1.345,0,0,1,0,1.893A1.326,1.326,0,0,1,953.157,1653.074Z" transform="translate(-2.519 0.029)"/><path d="M920.047,1626.84a4.451,4.451,0,0,0-6.314,0l-13.508,13.573a4.5,4.5,0,0,0,0,6.344l4.784,4.806,19.821-19.917Z" transform="translate(0 0.006)" fill="#fff"/><path d="M905.009,1652.907h0a1.333,1.333,0,0,1-.943-.392l-4.783-4.806a5.845,5.845,0,0,1,0-8.236l13.509-13.572a5.777,5.777,0,0,1,8.2,0l4.783,4.805a1.342,1.342,0,0,1,0,1.892l-19.822,19.917A1.325,1.325,0,0,1,905.009,1652.907Zm11.882-26.036a3.106,3.106,0,0,0-2.215.921l-13.51,13.572a3.162,3.162,0,0,0,0,4.452l3.843,3.861,17.937-18.026-3.841-3.859A3.105,3.105,0,0,0,916.891,1626.871Z" transform="translate(0 0)"/><line x1="19.823" y2="19.916" transform="translate(905.009 1631.654)"/><path d="M905.009,1652.879a1.328,1.328,0,0,1-.943-.391,1.345,1.345,0,0,1,0-1.893l19.824-19.916a1.326,1.326,0,0,1,1.882,0,1.34,1.34,0,0,1,0,1.893l-19.822,19.915A1.319,1.319,0,0,1,905.009,1652.879Z" transform="translate(0 0.028)"/><path d="M906.68,1643.436a1.671,1.671,0,1,1-1.671-1.681A1.673,1.673,0,0,1,906.68,1643.436Z" transform="translate(0 0.082)" fill="#0054a6" stroke="#0054a6" stroke-miterlimit="10" stroke-width="1"/></g></svg>