<svg xmlns="http://www.w3.org/2000/svg" width="61" height="59" viewBox="0 0 61 59"><g transform="translate(-1096.832 -1621.094)"><rect width="45.5" height="46.801" rx="3.603" transform="translate(1098.185 1631.935)" fill="#fff"/><path d="M1140.081,1680.052H1101.79a4.973,4.973,0,0,1-4.958-4.977v-39.564a4.973,4.973,0,0,1,4.959-4.977h38.291a4.974,4.974,0,0,1,4.958,4.978v39.563A4.973,4.973,0,0,1,1140.081,1680.052Zm-38.291-46.8a2.259,2.259,0,0,0-2.252,2.26v39.564a2.259,2.259,0,0,0,2.251,2.26h38.292a2.259,2.259,0,0,0,2.251-2.26v-39.563a2.259,2.259,0,0,0-2.251-2.261Z" transform="translate(0 0.042)"/><path d="M1122.93,1657.733H1108.3a1.359,1.359,0,0,1,0-2.717h14.625a1.359,1.359,0,0,1,0,2.717Z" transform="translate(0.005 0.151)"/><path d="M1126.738,1649.27H1108.3a1.359,1.359,0,0,1,0-2.717h18.433a1.359,1.359,0,0,1,0,2.717Z" transform="translate(0.005 0.113)"/><path d="M1126.181,1664.417,1156,1629.728a1.921,1.921,0,0,0-.2-2.7l-4.753-4.118a1.9,1.9,0,0,0-2.688.2l-29.825,34.689" transform="translate(0.012 0.006)" fill="#fff"/><path d="M1126.181,1665.782a1.34,1.34,0,0,1-.884-.33,1.361,1.361,0,0,1-.141-1.916l29.825-34.689a.562.562,0,0,0-.057-.784l-4.754-4.117a.553.553,0,0,0-.778.054l-29.826,34.689a1.355,1.355,0,1,1-2.048-1.774l29.823-34.688a3.254,3.254,0,0,1,4.6-.339l4.753,4.116a3.287,3.287,0,0,1,.338,4.616l-29.825,34.689A1.345,1.345,0,0,1,1126.181,1665.782Z" transform="translate(0.011)"/><path d="M1118.252,1658.105l20.4-23.726,4.617-5.37,7.639,6.619-4.618,5.37-20.4,23.728" transform="translate(0.012 0.035)" fill="#0054a6" stroke="#000" stroke-miterlimit="10" stroke-width="1"/><path d="M1125.89,1666.09a1.343,1.343,0,0,1-.884-.329,1.362,1.362,0,0,1-.141-1.916L1149,1635.774l-5.589-4.844L1119.276,1659a1.355,1.355,0,1,1-2.048-1.774l25.016-29.1a1.351,1.351,0,0,1,1.91-.142l7.637,6.619a1.361,1.361,0,0,1,.141,1.917l-25.018,29.1A1.341,1.341,0,0,1,1125.89,1666.09Z" transform="translate(0.011 0.029)"/><path d="M1125.891,1664.6l-10.315,4.245,2.677-10.866Z" transform="translate(0.01 0.164)"/><path d="M1115.577,1670.207a1.356,1.356,0,0,1-1.313-1.684l2.676-10.867a1.353,1.353,0,0,1,2.2-.7l7.638,6.621a1.361,1.361,0,0,1-.372,2.285l-10.313,4.246A1.37,1.37,0,0,1,1115.577,1670.207Z" transform="translate(0.009 0.158)"/><path d="M1119.037,1660.44l-1.508,6.119,5.808-2.391Z" transform="translate(0.011 0.175)" fill="#fff"/></g></svg>