<svg xmlns="http://www.w3.org/2000/svg" width="55.287" height="60.562" viewBox="0 0 55.287 60.562"><g transform="translate(-1291.273 -1622.168)"><path d="M1318.919,1678.152a1.586,1.586,0,1,1,0-3.171,20.556,20.556,0,0,0,20.531-20.532v-8.578a20.531,20.531,0,0,0-41.063,0v8.578a1.586,1.586,0,1,1-3.172,0v-8.578a23.7,23.7,0,1,1,47.4,0v8.578A23.728,23.728,0,0,1,1318.919,1678.152Z"/><path d="M1323.493,1676.565a4.576,4.576,0,1,0-4.574,4.578A4.576,4.576,0,0,0,1323.493,1676.565Z" fill="#0054a6"/><path d="M1318.919,1682.73a6.163,6.163,0,1,1,6.159-6.165A6.173,6.173,0,0,1,1318.919,1682.73Zm0-9.154a2.99,2.99,0,1,0,2.987,2.989A2.994,2.994,0,0,0,1318.919,1673.576Z" fill="#0054a6"/><path d="M1299.855,1657.694a3.5,3.5,0,0,1-3.5,3.5h0a3.5,3.5,0,0,1-3.5-3.5v-13.641a3.5,3.5,0,0,1,3.5-3.5h0a3.5,3.5,0,0,1,3.5,3.5Z" fill="#0054a6"/><path d="M1296.357,1662.777a5.09,5.09,0,0,1-5.084-5.083v-13.641a5.083,5.083,0,0,1,10.167,0v13.641A5.088,5.088,0,0,1,1296.357,1662.777Zm0-20.634a1.914,1.914,0,0,0-1.912,1.91v13.641a1.913,1.913,0,0,0,3.825,0v-13.641A1.914,1.914,0,0,0,1296.357,1642.143Z" fill="#0054a6"/><path d="M1344.975,1657.694a3.5,3.5,0,0,1-3.5,3.5h0a3.5,3.5,0,0,1-3.5-3.5v-13.641a3.5,3.5,0,0,1,3.5-3.5h0a3.5,3.5,0,0,1,3.5,3.5Z" fill="#0054a6"/><path d="M1341.479,1662.777a5.088,5.088,0,0,1-5.084-5.083v-13.641a5.083,5.083,0,0,1,10.165,0v13.641A5.087,5.087,0,0,1,1341.479,1662.777Zm0-20.634a1.915,1.915,0,0,0-1.914,1.91v13.641a1.911,1.911,0,1,0,3.823,0v-13.641A1.912,1.912,0,0,0,1341.479,1642.143Z" fill="#0054a6"/><path d="M1316.049,1648.063a2.361,2.361,0,1,0-2.361,2.361A2.362,2.362,0,0,0,1316.049,1648.063Z"/><path d="M1326.509,1648.063a2.362,2.362,0,1,0-2.361,2.361A2.363,2.363,0,0,0,1326.509,1648.063Z"/><path d="M1318.919,1659.034a14.035,14.035,0,0,1-9.952-4.114,1.586,1.586,0,0,1,2.242-2.244,10.913,10.913,0,0,0,15.416,0,1.586,1.586,0,1,1,2.242,2.244A14.026,14.026,0,0,1,1318.919,1659.034Z"/></g></svg>