<svg xmlns="http://www.w3.org/2000/svg" width="56" height="54" viewBox="0 0 56 54"><g transform="translate(-1696.191 -1622.72)"><path d="M1727.661,1622.72h-28.6a2.855,2.855,0,0,0-2.869,2.832v43.587a2.853,2.853,0,0,0,2.869,2.829h21.379v-2.56H1699.06a.306.306,0,0,1-.323-.269v-43.587a.305.305,0,0,1,.323-.27h26.884v9.347a1.175,1.175,0,0,0,1.171,1.18h8.141v12.046h2.548v-14.3Zm.622,10.732v-6.333l5.929,6.333Zm-24.361,5.243h11.861a.194.194,0,0,0,.141-.059.2.2,0,0,0,.06-.143v-1.95a.2.2,0,0,0-.2-.2h-11.861a.2.2,0,0,0-.145.058.208.208,0,0,0-.058.145v1.95a.208.208,0,0,0,.058.143A.2.2,0,0,0,1703.922,1638.695Zm18.174,2.431h-18.175a.2.2,0,0,0-.144.06.2.2,0,0,0-.059.144v1.947a.208.208,0,0,0,.059.146.2.2,0,0,0,.144.058H1722.1a.2.2,0,0,0,.141-.058.2.2,0,0,0,.06-.146v-1.947a.2.2,0,0,0-.058-.144A.2.2,0,0,0,1722.1,1641.126Zm0,5.3h-18.175a.221.221,0,0,0-.144.058.214.214,0,0,0-.059.146v1.949a.2.2,0,0,0,.059.143.2.2,0,0,0,.144.059H1722.1a.2.2,0,0,0,.141-.059.191.191,0,0,0,.06-.143v-1.949a.2.2,0,0,0-.058-.143A.2.2,0,0,0,1722.1,1646.426Z"/><path d="M1750.014,1651.255h-6.221a1.439,1.439,0,0,0-.192-.649l-1.843-3.334a3.363,3.363,0,0,0-2.659-1.574h-9.189a3.364,3.364,0,0,0-2.658,1.574l-1.842,3.334a1.468,1.468,0,0,0-.194.649H1719a2.308,2.308,0,0,0-2.3,2.314v20.838a2.306,2.306,0,0,0,2.3,2.313h31.019a2.307,2.307,0,0,0,2.3-2.313v-20.838A2.309,2.309,0,0,0,1750.014,1651.255Z" transform="translate(-0.127)" fill="#0054a6"/><path d="M1734.594,1659.476a4.059,4.059,0,0,1,4.048,4.072" transform="translate(-0.238)" fill="none" stroke="#fff" stroke-linecap="round" stroke-linejoin="round" stroke-width="2.5"/><path d="M1743.692,1663.525a9.132,9.132,0,1,1-9.133-9.189A9.161,9.161,0,0,1,1743.692,1663.525Z" transform="translate(-0.181)" fill="none" stroke="#fff" stroke-linecap="round" stroke-linejoin="round" stroke-width="2.5"/></g></svg>