<svg xmlns="http://www.w3.org/2000/svg" width="57" height="50" viewBox="0 0 57 50"><g transform="translate(-698.628 -1884.151)"><path d="M727.318,1934.595a1.291,1.291,0,0,1-1.292-1.292v-7.576a1.292,1.292,0,0,1,2.583,0v7.576A1.291,1.291,0,0,1,727.318,1934.595Z" transform="translate(-0.19 -0.444)"/><path d="M739.293,1934.595H715.342a1.292,1.292,0,0,1,0-2.584h23.951a1.292,1.292,0,0,1,0,2.584Z" transform="translate(-0.19 -0.444)"/><path d="M754.337,1888.211a2.759,2.759,0,0,0-2.748-2.768h-48.92a2.758,2.758,0,0,0-2.75,2.768v29.675h54.418Z" fill="#fff"/><path d="M754.346,1918.733H699.91a1.278,1.278,0,0,1-1.282-1.275v-29.3a4.026,4.026,0,0,1,4.033-4.009H751.6a4.025,4.025,0,0,1,4.031,4.009v29.3A1.278,1.278,0,0,1,754.346,1918.733Zm-53.152-2.549h51.869V1888.16a1.464,1.464,0,0,0-1.466-1.458H702.661a1.464,1.464,0,0,0-1.467,1.458Z" transform="translate(0 0)"/><path d="M699.919,1917.886v4.887a2.759,2.759,0,0,0,2.75,2.768h48.919a2.76,2.76,0,0,0,2.749-2.768v-4.887Z" transform="translate(0 -0.35)" fill="#0054a6"/><path d="M751.6,1926.834H702.661a4.052,4.052,0,0,1-4.033-4.061v-4.887a1.287,1.287,0,0,1,1.282-1.291h54.435a1.287,1.287,0,0,1,1.282,1.291v4.887A4.051,4.051,0,0,1,751.6,1926.834Zm-50.4-7.657v3.6a1.473,1.473,0,0,0,1.467,1.477H751.6a1.473,1.473,0,0,0,1.467-1.477v-3.6Z" transform="translate(0 -0.358)"/><path d="M736.927,1912.9a1.29,1.29,0,0,1-.913-.378l-11.184-11.184a1.292,1.292,0,0,1,1.826-1.828l11.184,11.185a1.292,1.292,0,0,1-.913,2.2Z" transform="translate(-0.225 -0.181)"/><path d="M732.649,1900.42a6.905,6.905,0,1,1-6.906-6.906A6.906,6.906,0,0,1,732.649,1900.42Z" transform="translate(-0.176 -0.113)" fill="#fff"/><path d="M725.743,1908.616a8.2,8.2,0,1,1,8.2-8.2A8.206,8.206,0,0,1,725.743,1908.616Zm0-13.809a5.614,5.614,0,1,0,5.614,5.613A5.619,5.619,0,0,0,725.743,1894.807Z" transform="translate(-0.175 -0.105)"/></g></svg>